# xmcd
#
# Track frame offsets:
#	150
#	14843
#	28629
#	45184
#	56026
#	71766
#	82968
#	99698
#	111227
#	131139
#	143802
#	156584
#	169006
#	181266
#	194705
#	206377
#	215800
#	228950
#	243110
#	259885
#	274443
#	285718
#	297833
#	309468
#	323718
#
# Disc length: 4465
#
# Revision: 22
# Processed by: cddbd v1.5.1PL0 Copyright (c) Steve Scherf et al.
# Submitted via: ExactAudioCopy v0.95a5
# Normalized: r21:TDELIM( - )
#
DISCID=82116f19
DTITLE=Various Artist - The Best Country In Town Disc 2
DYEAR=1900
DGENRE=
TTITLE0=Don Gibson - I Can't Stop Love You
TTITLE1=Sandy Folar - Greensleeves
TTITLE2=Perry Como - For the Good Times
TTITLE3=The Everly Brothers - Devoted To You
TTITLE4=Peter Paul and Mary - Leaving On A Jet Plane
TTITLE5=The Brothers Four - Blowin In The Wind
TTITLE6=Richard - Operator
TTITLE7=Sammi Smith - Help Me Make It Though The Night
TTITLE8=Glen Campbeel - Amazaing Grace
TTITLE9=Johnny Horton - Whispering Pines
TTITLE10=Eddy Arnold - Then You Can Tell Me Goodbye
TTITLE11=Glen Campbell - By The Time I Get To Phoenix
TTITLE12=Peter Paul and Mary - Gone The Rainbow
TTITLE13=Joan Baez - House Of The Rising Sun
TTITLE14=Johnny Horton - The Battle Of New Orleans
TTITLE15=Charley Pride - Kiss An Angel Good Morning
TTITLE16=Marty Robin - The Hanging Tree
TTITLE17=Ringston - Where Have All The Flowers Gone
TTITLE18=Glen Campbell - Yesterday When I Was Young
TTITLE19=Connway Twitty - Hello Darlin
TTITLE20=The Brothers Four - Yellow Bird
TTITLE21=Jose Feliciano - Rain
TTITLE22=Glen Campbell - All Have To Is Dream
TTITLE23=Johnny Horton - The Mansion You Stole
TTITLE24=FranKie Laine - Rose Rose I Love You
EXTD=
EXTT0=
EXTT1=
EXTT2=
EXTT3=
EXTT4=
EXTT5=
EXTT6=
EXTT7=
EXTT8=
EXTT9=
EXTT10=
EXTT11=
EXTT12=
EXTT13=
EXTT14=
EXTT15=
EXTT16=
EXTT17=
EXTT18=
EXTT19=
EXTT20=
EXTT21=
EXTT22=
EXTT23=
EXTT24=
PLAYORDER=
